<svg width="201" height="89" viewBox="0 0 201 89" fill="none" xmlns="http://www.w3.org/2000/svg">
<path d="M25.288 61.64C20.3173 61.64 16.3707 60.808 13.448 59.144C10.5467 57.48 8.46667 55.1653 7.208 52.2C5.94933 49.2347 5.32 45.7893 5.32 41.864V14.728H17.928V42.376C17.928 45.576 18.664 47.848 20.136 49.192C21.6293 50.536 23.3467 51.208 25.288 51.208C26.568 51.208 27.7627 50.92 28.872 50.344C30.0027 49.7467 30.9093 48.808 31.592 47.528C32.296 46.2267 32.648 44.5093 32.648 42.376V14.728H45.256V41.864C45.256 45.7893 44.6267 49.2347 43.368 52.2C42.1093 55.1653 40.0187 57.48 37.096 59.144C34.1947 60.808 30.2587 61.64 25.288 61.64Z" fill="white"/>
<path d="M66.344 61.64C65.0427 61.64 63.56 61.576 61.896 61.448C60.232 61.3413 58.92 61.192 57.96 61V49.8C58.536 49.864 59.1973 49.9387 59.944 50.024C60.6907 50.088 61.3947 50.12 62.056 50.12C64.2747 50.12 65.7467 49.5547 66.472 48.424C67.1973 47.2933 67.56 45.5333 67.56 43.144V14.728H80.04V46.344C80.04 49.7573 79.6773 52.5947 78.952 54.856C78.2267 57.1173 76.872 58.8133 74.888 59.944C72.9253 61.0747 70.0773 61.64 66.344 61.64Z" fill="white"/>
<path d="M168.32 75V28.728H180.768V64.76H199.264V75H168.32Z" fill="white"/>
<path d="M107.912 75L93.96 28.728H105.992L113.16 53.56L120.072 28.728H128.776L135.944 53.56L142.856 28.728H154.888L141.064 75H131.784L124.424 49.848L117.064 75H107.912Z" fill="white"/>
<line y1="71.5" x2="90" y2="71.5" stroke="white" stroke-width="7"/>
<line x1="90" y1="18.5" x2="180" y2="18.5" stroke="white" stroke-width="7"/>
</svg>
